<svg width="128" height="128" viewBox="0 0 128 128" fill="none" xmlns="http://www.w3.org/2000/svg">
<rect width="128" height="128" rx="13" fill="#FBFBFE"/>
<path d="M18.7672 82.685C16.7242 81.079 14.5432 79.539 13.0542 77.368C9.91918 73.54 7.50618 69.11 5.85618 64.454C4.85818 61.426 4.51718 58.179 3.23118 55.269C1.88718 53.155 3.46218 50.844 5.77818 50.172C6.80818 49.974 8.62118 49.001 6.43318 49.696C4.47118 51.136 4.28218 48.39 6.29418 48.215C7.66618 48.034 8.17218 46.91 7.70218 45.899C6.22818 44.937 11.2762 43.882 8.73618 42.447C6.09118 39.592 12.4362 39.043 10.8712 42.285C10.4962 44.777 15.3062 41.827 14.1892 44.706C15.3242 46.089 18.4372 45.021 18.3592 46.96C20.0112 47.074 20.5792 48.463 22.1292 48.57C23.7372 49.297 26.6502 49.868 27.1972 51.68C25.6032 52.941 21.9112 49.072 21.7332 52.566C22.2152 57.729 22.0912 63.046 23.9812 67.962C24.8742 70.94 27.0402 73.282 28.9962 75.602C30.8682 77.873 33.4032 79.471 35.9872 80.816C38.2532 81.885 40.6962 82.593 43.1672 83.039C44.1682 82.273 45.9382 79.425 47.5002 80.626C47.5752 81.976 44.3992 83.448 47.3512 83.3C49.0852 82.775 50.2872 84.64 51.7152 82.957C53.0302 84.515 57.1822 81.963 56.2462 85.147C54.9792 85.963 53.1342 85.468 51.8672 86.594C49.7772 85.549 48.1142 87.527 45.7992 87.279C43.2302 87.737 40.6152 87.924 38.0102 87.927C33.7362 87.59 29.3722 87.447 25.3072 85.96C23.0142 85.294 20.7802 83.988 18.7672 82.685V82.685ZM22.3752 84.25C24.6112 85.216 26.7982 86.235 29.2492 86.543C33.1382 87.083 37.1542 87.916 41.0572 87.158C39.2902 86.36 37.4642 87.466 35.7042 86.587C33.5942 87.042 31.3292 86.472 29.1832 86.191C26.7442 85.105 24.1112 84.357 21.8262 82.946C18.9712 81.903 23.3022 84.284 24.0742 84.477C25.8582 85.49 22.1122 83.957 21.5832 83.537C20.0882 82.698 19.8972 82.873 21.4352 83.725C21.7452 83.904 22.0512 84.096 22.3752 84.25V84.25ZM18.1192 81.242C20.2872 82.046 18.1102 79.718 17.1182 79.853C16.6782 79.089 15.4362 78.607 16.3122 78.198C14.7382 78.745 14.6622 76.119 13.9232 76.494C12.2562 75.968 13.2752 74.104 11.2892 72.96C11.1082 71.754 9.31818 70.709 8.74718 68.89C8.49518 67.958 6.72318 65.285 7.81118 67.772C8.73718 70.168 10.3662 72.221 11.7242 74.27C12.7762 76.22 14.0202 78.261 15.9372 79.478C16.5832 80.098 17.2072 81.048 18.1192 81.242V81.242ZM11.8772 74.387C11.9512 74.06 12.2732 75.095 11.8772 74.387V74.387ZM20.7162 82.205C21.1952 81.988 20.0252 81.933 20.7162 82.205V82.205ZM21.8922 82.633C21.7712 82.04 21.3542 82.965 21.8922 82.633V82.633ZM23.3652 83.246C24.0652 82.579 22.2842 82.825 23.3652 83.246V83.246ZM25.8892 84.653C26.3152 84.025 24.5252 84.417 25.8892 84.653V84.653ZM21.0422 81.275C22.1302 80.57 19.6352 81.266 21.0422 81.275V81.275ZM22.1462 81.826C22.1152 81.454 21.7532 81.992 22.1462 81.826V81.826ZM27.6672 85.272C28.5552 85.833 32.8512 86.499 30.1612 85.501C29.7102 85.597 25.1732 84.219 27.6672 85.272ZM18.9042 78.445C18.8172 78.073 17.5242 78.033 18.9042 78.445V78.445ZM21.4722 79.944C22.1422 79.478 20.0842 79.584 21.4722 79.944V79.944ZM23.6352 81.27C24.5952 80.907 22.0782 80.906 23.6352 81.27V81.27ZM17.8562 77.306C18.8982 78.106 22.0582 77.41 19.4512 76.83C18.2652 76.198 15.5932 75.766 17.4152 77.211L17.8562 77.306V77.306ZM25.0992 81.727C25.5342 80.988 23.2792 81.305 25.0992 81.727V81.727ZM22.8982 79.978C25.4442 80.699 20.7572 78.367 22.2702 79.713L22.6052 79.864L22.8982 79.978ZM27.3122 82.528C29.7232 82.552 25.1332 82.196 27.3122 82.528V82.528ZM16.9282 75.911C16.8342 75.462 16.3342 75.948 16.9282 75.911V75.911ZM31.3902 84.817C31.4542 84.007 30.6042 85.421 31.3902 84.817V84.817ZM21.0452 78.432C20.8982 78.004 20.2912 78.413 21.0452 78.432V78.432ZM17.1582 75.63C18.5422 75.545 15.2612 75.021 17.1582 75.63V75.63ZM12.5522 72.653C12.3792 71.988 11.0462 71.46 12.5522 72.653V72.653ZM24.6422 80.326C24.3892 80.036 24.5222 80.389 24.6422 80.326V80.326ZM32.1662 84.943C32.1432 84.501 31.7562 85.11 32.1662 84.943V84.943ZM23.9762 79.638C24.1122 79.067 22.7952 79.464 23.9762 79.638V79.638ZM18.3702 76.085C19.4002 75.975 16.7192 75.388 18.3702 76.085V76.085ZM27.8532 81.976C29.4582 81.341 26.2882 81.667 27.8532 81.976V81.976ZM22.9202 78.629C24.7702 78.867 20.7192 77.37 22.5132 78.494L22.9202 78.629ZM29.3502 82.583C31.0782 81.551 30.5082 85.001 32.2812 82.874C34.0292 81.597 30.7712 84.452 32.9252 83.102C34.4842 82.06 36.7862 83.596 38.2402 84.097C39.2852 84.046 40.3022 85.001 41.3752 84.419C43.4392 83.863 37.3382 83.595 38.9372 82.61C37.0492 83.159 35.6552 81.955 34.7252 80.745C32.6062 80.256 30.1592 79.172 29.1002 77.297C28.6682 76.594 29.7222 77.398 28.7272 76.247C27.4512 75.111 26.8142 73.821 25.9572 72.442C24.9342 71.897 24.8132 70.29 24.7102 72.388C24.7182 71.064 23.4742 70.172 23.1692 70.541C23.1642 69.265 24.5022 69.905 23.5652 68.961C23.3642 67.638 22.7002 66.261 22.5012 64.768C22.1922 64.047 22.4582 62.506 21.4432 64.135C21.0742 65.857 21.3212 62.02 21.8962 63.284C22.6492 61.992 21.6252 62.145 21.5832 62.323C22.0742 61.234 21.8942 59.689 21.4542 60.278C21.7152 59.123 21.8672 56.027 21.0632 56.577C21.5512 55.369 21.9892 51.049 19.8702 52.696C19.0122 52.709 17.5252 53.006 16.8242 53.356C19.0252 54.57 16.6022 53.795 15.7042 53.601C15.5882 54.726 14.7002 54.241 13.5902 54.251C15.3622 54.469 12.7272 56.064 11.7122 55.444C10.3912 56.074 12.8512 57.651 11.7382 58.138C11.8752 58.871 9.71518 57.872 9.88418 59.568C8.60218 59.027 9.70918 61.58 10.3502 60.716C12.5302 61.307 11.8842 62.651 11.9392 63.928C11.5842 64.673 10.1852 62.178 11.6272 62.294C10.4892 60.445 10.3692 61.626 9.42218 62.485C9.20318 62.546 11.8342 63.707 10.1832 64.28C11.6352 64.505 11.6782 65.775 11.9752 66.58C12.8472 67.49 12.6682 65.576 13.7132 66.67C13.0512 65.694 10.2102 63.924 12.4972 64.492C12.4852 63.512 12.0832 62.721 12.7852 62.74C13.4802 61.484 12.0572 65.84 13.6222 64.243C14.0562 64.053 14.1632 62.985 14.9422 64.344C16.0722 65.457 15.3512 66.263 13.7552 65.241C14.0402 66.212 15.8892 66.556 15.5412 68.07C15.9092 69.403 16.4252 68.912 16.8742 68.835C17.2262 70.129 17.4272 69.178 17.4432 68.563C19.0552 68.908 18.6772 69.861 19.1832 70.528C20.2952 71.028 17.5922 67.128 19.5002 69.355C21.5072 71.167 20.2532 71.922 18.4522 71.633C19.5922 71.54 19.9592 73.174 21.3862 73.117C22.6872 73.735 23.5682 76.111 21.3252 75.122C20.5482 74.42 17.7952 73.556 20.0452 74.89C22.1202 75.851 23.7692 76.425 25.7712 77.633C27.2032 78.654 27.8222 79.825 28.3652 80.06C27.1612 80.632 24.7372 79.599 26.5372 79.283C25.4132 79.08 24.1502 78.51 25.2252 79.91C26.1412 80.674 28.4662 80.595 28.8842 80.68C28.5302 81.457 27.9242 81.52 28.8972 81.58C27.8142 82.161 29.2502 82.252 29.3502 82.583V82.583ZM27.1272 76.306C26.4652 75.614 26.2932 74.32 27.0092 75.445C27.3762 75.593 28.1842 77.561 27.1272 76.306ZM34.3662 80.903C34.7792 80.876 34.3792 81.217 34.3662 80.903V80.903ZM26.0832 74.608C26.0572 73.563 26.3222 75.415 26.0832 74.608V74.608ZM25.3642 73.642C24.5312 72.035 26.4132 74.096 25.3642 73.642V73.642ZM16.6442 67.624C17.1332 67.493 16.8852 68.458 16.6442 67.624V67.624ZM23.5842 71.384C23.8842 70.257 23.9372 72.329 23.5842 71.384V71.384ZM18.6812 67.975C18.3362 67.354 19.4042 68.559 18.6812 67.975V67.975ZM22.8882 69.324C22.1002 67.558 23.4482 68.359 23.0632 69.613L22.8882 69.324ZM15.6322 64.485C15.2802 63.906 14.6972 62.207 14.8862 61.687C15.0542 62.533 16.6822 65.324 15.6832 62.843C14.5802 60.764 17.0022 63.516 17.2512 64.037C17.3682 64.553 16.5702 63.896 17.1102 65.106C16.1262 63.729 16.5302 65.867 15.6322 64.485V64.485ZM13.3912 62.939C13.4832 61.592 13.9032 63.862 13.3912 62.939V62.939ZM14.3992 63.288C14.8802 62.271 15.2142 64.705 14.3992 63.288V63.288ZM11.9722 61.41C11.1382 60.579 10.5342 59.816 12.0132 60.896C12.5812 60.917 10.7462 59.155 12.1492 60.335C13.6242 60.605 12.8772 62.754 11.9722 61.41ZM13.2472 61.377C13.7322 60.896 13.5042 61.85 13.2472 61.377V61.377ZM14.0322 61.628C13.2962 60.251 14.9242 62.207 14.0322 61.628V61.628ZM12.4732 60.139C10.0472 57.978 15.5222 61.267 12.8692 60.539L12.4732 60.139ZM19.4272 64.178C18.3762 63.549 19.1472 59.746 19.5072 62.346C20.5272 62.016 19.4502 63.69 20.2112 63.674C20.0912 64.731 19.7502 65.109 19.4272 64.178ZM21.9992 65.7C22.1022 64.553 22.2152 66.482 21.9992 65.7V65.7ZM21.5522 65.256C21.6672 64.769 21.5632 65.834 21.5522 65.256V65.256ZM12.9482 59.429C11.3882 57.279 17.4792 61.606 13.9472 59.975C13.5782 59.878 13.1332 59.842 12.9482 59.429ZM17.9022 62.054C17.7542 60.243 18.2302 62.354 17.9022 62.054V62.054ZM21.6612 64.467C21.9522 63.436 21.6842 65.149 21.6612 64.467V64.467ZM13.1882 58.608C14.1152 58.41 17.0272 60.234 14.3532 59.129C14.0562 58.8 13.4212 58.949 13.1882 58.608V58.608ZM21.1452 62.574C21.2442 60.721 21.6992 61.469 21.1492 62.839L21.1452 62.574ZM13.8772 57.963C14.2542 57.409 12.8742 55.46 14.0762 57.265C14.5952 57.677 15.5782 57.955 14.7102 58.128C16.0762 59.334 14.3782 58.454 13.8772 57.963ZM20.7512 61.996C21.0122 59.886 20.9822 63.231 20.7512 61.996V61.996ZM13.0872 56.014C13.3772 55.891 13.2412 56.399 13.0872 56.014V56.014ZM14.8822 57.081C15.3432 56.112 15.7322 58.161 14.8822 57.081V57.081ZM19.9382 59.895C19.9352 59.522 20.0352 60.436 19.9382 59.895V59.895ZM19.6462 59.246C18.9452 57.515 20.2992 60.163 19.6462 59.246V59.246ZM19.2152 58.11C19.0982 57.396 19.6162 59.009 19.2152 58.11V58.11ZM19.9182 56.97C19.4352 56.121 20.5252 53.23 20.6482 55.024C20.1392 56.42 20.5022 57.203 20.8552 55.329C21.5102 53.853 20.7132 58.239 19.9182 56.97ZM20.6382 52.669C20.8482 52.412 20.6852 52.98 20.6382 52.669V52.669ZM19.4342 76.394C19.1482 76.144 19.4702 76.551 19.4342 76.394V76.394ZM21.9142 77.647C23.2942 78.001 23.2872 77.432 22.0402 77.263C21.3702 76.639 19.2532 75.977 21.1482 77.185C21.2722 77.504 21.6682 77.496 21.9142 77.647V77.647ZM17.0172 74.394C17.7762 74.962 19.8792 75.999 18.1002 74.61C18.7002 73.914 16.9522 73.542 17.5312 73.075C16.0552 72.173 16.3662 72.254 17.4012 72.282C15.6282 71.488 17.6572 71.549 17.5622 71.141C16.8782 71.006 14.1652 69.935 15.7612 71.229C14.1392 70.403 15.3742 71.537 14.8842 71.417C13.2242 70.966 16.3612 72.681 14.6212 72.255C15.5722 73.008 17.1822 74.188 15.0222 73.052C14.7382 73.462 16.5672 74.082 17.0172 74.394V74.394ZM19.6102 75.884C22.7632 76.898 18.0632 74.642 19.6102 75.884V75.884ZM32.8882 83.929C32.9292 83.303 32.4582 84.462 32.8882 83.929V83.929ZM34.2532 84.502C34.9812 83.799 34.2832 85.626 35.4582 84.33C35.4712 83.402 35.4232 82.853 34.1082 83.98C33.7442 84.183 33.5832 85.035 34.2532 84.502V84.502ZM12.5892 70.896C12.3662 70.02 11.0222 70.022 12.5892 70.896V70.896ZM14.0452 71.852C13.5042 70.955 12.1152 71.039 14.0452 71.852V71.852ZM22.3372 76.852C23.1472 77.572 26.0552 77.38 23.3202 76.941C22.9162 76.342 20.7492 76.484 22.3372 76.852ZM33.7332 83.891C34.9792 82.845 32.5262 84.356 33.7332 83.891V83.891ZM36.3252 85.671C36.3332 85.335 35.7882 85.817 36.3252 85.671V85.671ZM36.3292 85.201C37.7082 83.739 34.9932 85.287 36.3292 85.201V85.201ZM9.00418 67.896C7.82818 66.219 8.27318 65.465 7.14018 64.095C6.92418 63.047 5.19418 60.67 6.24518 63.188C7.20718 64.661 7.49218 66.941 9.00418 67.896ZM35.8962 84.737C38.4352 83.097 34.8542 84.021 35.8962 84.737V84.737ZM37.8332 85.495C39.1052 84.403 37.0292 85.268 37.8332 85.495V85.495ZM12.1582 69.042C12.5212 68.502 11.2182 68.972 12.1582 69.042V69.042ZM37.4292 84.977C38.6602 84.185 37.1452 84.306 37.2062 85.049L37.4292 84.977ZM20.7282 74.451C20.6862 73.915 20.0782 74.496 20.7282 74.451V74.451ZM21.7602 75.044C21.4312 74.381 21.2562 75.149 21.7602 75.044V75.044ZM39.4032 85.513C40.9802 84.375 38.4482 85.296 39.0732 85.729L39.4032 85.513ZM38.7992 85.222C40.0842 84.145 37.4442 85.698 38.7992 85.222V85.222ZM41.8852 87.276C42.7482 86.698 40.8362 87.089 41.8852 87.276V87.276ZM12.9482 68.652C14.1032 68.911 17.5672 71.499 15.5242 68.832C14.4772 68.522 15.1052 65.964 14.0372 66.416C14.7542 67.614 14.6262 68.122 13.1222 67.368C11.2322 66.444 12.0592 67.825 12.4302 68.205C11.9262 68.319 13.0962 68.644 12.9482 68.652V68.652ZM7.68318 64.494C7.89018 63.637 5.77718 59.786 6.68518 62.563C7.01218 63.145 6.97918 64.247 7.68318 64.494ZM17.3482 70.453C16.7512 69.955 17.3192 70.381 17.3482 70.453V70.453ZM18.8132 70.794C18.8132 69.888 17.1932 70.425 18.8132 70.794V70.794ZM31.5152 78.8C31.2722 78.182 30.5582 78.786 31.5152 78.8V78.8ZM32.1252 79.245C32.0342 78.898 31.7732 79.313 32.1252 79.245V79.245ZM37.1592 82.417C37.6432 82.061 36.5552 82.371 37.1592 82.417V82.417ZM10.3122 65.165C11.6972 64.629 8.82718 64.783 10.3122 65.165V65.165ZM30.3962 77.817C30.3812 76.922 29.5132 78.041 30.3962 77.817V77.817ZM9.76518 63.89C10.6542 63.589 8.94118 63.692 9.76518 63.89V63.89ZM12.3462 65.14C12.3322 64.846 12.0742 65.253 12.3462 65.14V65.14ZM43.8422 84.453C44.9862 84.224 47.5932 85.035 48.0142 84.15C46.6242 84.116 43.2082 83.171 43.0472 84.375L43.3512 84.423L43.8422 84.453ZM13.1672 65.348C13.1882 64.438 12.4592 65.313 13.1672 65.348V65.348ZM6.37918 60.638C6.07118 58.907 5.20618 60.375 6.37918 60.638V60.638ZM7.99718 61.044C8.01818 60.488 6.51618 60.544 7.99718 61.044V61.044ZM8.92318 61.499C8.65518 61.283 8.71418 61.772 8.92318 61.499V61.499ZM14.7442 65.233C15.0192 64.98 14.0952 65.047 14.7442 65.233V65.233ZM8.30818 60.474C8.15018 59.167 6.43118 60.279 8.30818 60.474V60.474ZM4.98618 58.321C4.94018 57.717 4.66418 58.548 4.98618 58.321V58.321ZM5.48118 57.948C5.40118 57.231 5.05718 58.038 5.48118 57.948V57.948ZM8.20818 59.575C9.36218 59.123 6.10818 58.638 7.97218 59.49L8.20818 59.575ZM44.7172 82.127C45.4562 81.45 43.7802 81.918 44.7172 82.127V82.127ZM49.1282 84.412C49.4242 83.54 48.3822 84.528 49.1282 84.412V84.412ZM8.48818 58.147C8.60918 57.299 7.57218 58.314 8.48818 58.147V58.147ZM4.60618 55.546C4.39818 54.351 4.42718 52.254 6.42018 52.962C3.75918 53.491 8.26318 56.271 7.69518 54.075C8.81418 54.131 9.88318 53.414 9.29718 54.5C11.5022 54.258 13.0302 52.345 15.1612 52.613C16.8202 52.393 18.6352 52.226 20.4222 51.558C21.8932 51.453 23.3092 49.87 22.5032 48.932C20.4982 48.762 18.3992 49.014 16.1832 49.454C13.7282 49.964 11.4972 50.933 9.01918 51.35C6.60318 51.675 9.50418 52.245 8.81118 52.371C7.55218 52.809 10.3152 53.103 8.64818 53.564C7.61918 53.368 6.54718 53.015 6.98718 51.93C4.67418 52.231 2.64018 53.19 4.46818 55.544L4.60618 55.546V55.546ZM10.1822 52.707C10.7242 50.709 13.0872 54.351 11.0702 52.972C10.8302 52.791 10.4332 52.644 10.1822 52.707ZM10.2872 51.737C11.0702 51.155 10.7022 52.065 10.2872 51.737V51.737ZM11.2802 51.754C11.3522 50.835 13.5572 52.241 11.6442 52.085L11.2802 51.754ZM12.6402 51.208C13.1372 50.626 12.7842 51.722 12.6402 51.208V51.208ZM12.9882 50.975C13.8152 49.981 17.6692 50.339 14.8482 50.877C14.0922 50.308 13.5132 51.213 12.9882 50.975ZM18.0202 50.199C17.8952 47.484 20.5202 51.162 18.0202 50.199V50.199ZM19.4482 50.189C19.9692 48.824 21.4742 49.641 19.6902 49.915C19.7282 50.062 19.6372 50.623 19.4482 50.189ZM7.92518 57.445C9.48418 56.49 6.27018 56.615 7.92518 57.445V57.445ZM9.07818 57.764C9.62518 57.183 7.88918 57.529 9.07818 57.764V57.764ZM5.68018 55.354C6.57118 54.668 4.62518 55.093 5.68018 55.354V55.354ZM51.7312 84.163C51.7582 83.368 51.0502 84.52 51.7312 84.163V84.163ZM47.0522 80.97C47.1862 80.056 46.4502 81.049 47.0522 80.97V80.97ZM53.0182 84.471C54.2642 84.477 56.7932 84.084 54.0822 84.085C53.6562 84.15 51.6042 84.138 53.0182 84.471ZM10.0922 57.204C11.1012 57.136 11.6702 56.092 9.89618 56.151C7.14918 55.869 12.3202 57.093 9.54318 56.743C9.17218 56.989 10.0712 57.272 10.0922 57.204ZM10.9802 57.653C10.8752 57.007 10.6682 57.997 10.9802 57.653V57.653ZM12.0342 54.844C12.4712 54.302 11.4282 54.699 12.0342 54.844V54.844ZM8.68018 49.239C10.4802 48.628 12.9422 47.939 13.7912 49.54C12.9262 48.5 13.4412 47.475 14.2592 48.997C15.4142 50.536 15.9912 48.297 15.2412 47.78C16.0972 48.843 17.0702 49.347 15.8142 47.847C17.1802 46.205 13.0802 48.063 12.1492 48.044C11.7002 48.244 7.52018 49.109 8.68018 49.239V49.239ZM9.73518 47.219C10.7602 46.444 13.2852 47.68 11.6652 46.448C11.5062 46.309 8.12018 47.383 9.73518 47.219ZM13.4782 47.374C14.6782 47.404 12.9592 45.759 14.3902 46.504C14.1562 45.737 12.7242 45.594 12.0242 45.286C11.6272 45.989 12.8292 47.383 13.4782 47.374V47.374ZM10.3912 43.977C10.8072 43.413 9.66318 44.263 10.3912 43.977V43.977ZM11.9212 44.342C13.8572 44.086 11.4272 43.509 11.5302 44.322L11.9212 44.342ZM9.06518 42.109C7.70118 40.328 11.6292 42.408 10.2432 40.544C9.07718 39.616 7.95818 41.591 9.06518 42.109V42.109ZM26.5562 51.53C27.1812 50.422 23.9762 50.036 26.1362 51.138C26.3332 51.203 26.2892 51.605 26.5562 51.53Z" fill="black"/>
<path d="M56.0632 43.886C55.8402 44.769 55.7012 46.248 55.6492 48.326C55.6492 48.735 55.4652 48.939 55.0962 48.939C54.7282 48.939 54.4712 48.761 54.3272 48.406C53.9322 47.445 53.5572 46.776 53.2022 46.393C52.7822 45.946 52.2222 45.676 51.5252 45.584C50.7752 45.466 48.9082 45.406 45.9212 45.406C45.2382 45.406 44.7892 45.479 44.5802 45.623C44.4482 45.715 44.3832 45.913 44.3832 46.217V55.155C44.3832 55.459 44.5732 55.602 44.9542 55.59C46.1252 55.576 47.8222 55.496 50.0442 55.352C50.4782 55.3 50.7712 55.157 50.9222 54.928C51.0742 54.699 51.2222 54.103 51.3662 53.142C51.4582 52.616 51.7672 52.412 52.2932 52.531C52.7412 52.623 52.9332 52.827 52.8662 53.142C52.4972 54.932 52.3782 57.26 52.5102 60.128C52.5242 60.47 52.3072 60.654 51.8602 60.68C51.4912 60.72 51.2612 60.522 51.1692 60.088C50.8282 58.444 50.1922 57.567 49.2662 57.453C48.3382 57.343 46.8292 57.287 44.7382 57.287C44.5012 57.287 44.3842 57.37 44.3842 57.542V66.424C44.3842 67.08 44.6262 67.528 45.1132 67.765C45.4962 67.961 46.3172 68.139 47.5802 68.297C48.2262 68.361 48.5072 68.647 48.4292 69.145C48.3492 69.58 47.7712 69.75 46.6922 69.658C43.5742 69.409 41.0032 69.423 38.9782 69.699C38.4122 69.776 38.1302 69.548 38.1302 69.009C38.1302 68.667 38.4122 68.47 38.9782 68.417C40.2672 68.271 40.9112 67.14 40.9112 65.022V48.127C40.9112 47.261 40.7572 46.593 40.4482 46.127C40.1382 45.659 39.5632 45.233 38.7212 44.853C38.1952 44.616 37.9992 44.293 38.1302 43.885C38.1952 43.635 38.3012 43.497 38.4452 43.471C38.5762 43.431 38.9262 43.458 39.4902 43.55C40.3192 43.682 42.2732 43.748 45.3502 43.748C48.9822 43.748 52.1182 43.668 54.7632 43.511C55.6442 43.458 56.0852 43.53 56.0852 43.727C56.084 43.7807 56.0766 43.834 56.0632 43.886V43.886ZM68.8892 68.967C68.8892 69.492 68.5922 69.724 68.0002 69.655C66.1872 69.486 63.9362 69.51 61.2532 69.734C60.7132 69.788 60.3822 69.773 60.2552 69.696C60.1302 69.617 60.0682 69.4 60.0682 69.043C60.0682 68.729 60.4262 68.463 61.1432 68.246C61.8612 68.029 62.2192 67.38 62.2192 66.302V48.445C62.2192 47.378 62.0642 46.596 61.7562 46.096C61.4462 45.596 60.9042 45.208 60.1282 44.933C59.7202 44.788 59.5162 44.584 59.5162 44.32C59.5162 43.926 59.8122 43.63 60.4032 43.433C61.2992 43.143 62.2262 42.698 63.1872 42.091C63.9762 41.617 64.4762 41.383 64.6862 41.383C65.1732 41.383 65.4162 41.717 65.4162 42.389C65.4162 42.336 65.3892 42.994 65.3372 44.361C65.2992 45.663 65.2852 46.945 65.2992 48.209L65.3762 65.828C65.3762 66.632 65.5742 67.215 65.9692 67.576C66.3642 67.938 67.0412 68.178 68.0002 68.296C68.5922 68.359 68.8892 68.584 68.8892 68.967V68.967ZM86.8832 67.643C86.8832 67.921 86.3802 68.338 85.3752 68.896C84.3682 69.456 83.5622 69.735 82.9572 69.735C82.4432 69.735 81.9912 69.487 81.5962 68.985C81.2012 68.486 80.9252 68.236 80.7662 68.236C80.6492 68.236 80.0252 68.507 78.8932 69.044C77.7632 69.585 76.6232 69.856 75.4802 69.856C74.4022 69.856 73.5002 69.539 72.7762 68.909C71.9882 68.212 71.5922 67.263 71.5922 66.066C71.5922 63.791 74.1962 62.16 79.4062 61.173C80.3002 61.002 80.7542 60.64 80.7652 60.087L80.8072 58.824C80.8842 56.667 79.9312 55.589 77.9452 55.589C77.3802 55.589 76.8422 56.093 76.3362 57.107C75.8312 58.12 75.1042 58.666 74.1572 58.746C73.0792 58.85 72.5382 58.396 72.5382 57.384C72.5382 56.752 73.3422 56.016 74.9462 55.173C76.6292 54.293 78.2492 53.852 79.8002 53.852C82.4702 53.852 83.7932 55.122 83.7662 57.661L83.6862 65.789C83.6752 66.644 84.0372 67.072 84.7732 67.072C84.9182 67.072 85.1942 67.039 85.6012 66.973C85.8366 66.9297 86.0738 66.8967 86.3122 66.874C86.6932 66.874 86.8832 67.132 86.8832 67.643V67.643ZM80.8082 63.145C80.8202 62.816 80.7442 62.598 80.5792 62.494C80.4162 62.389 80.1562 62.369 79.8012 62.434C76.6302 63 75.0462 64.033 75.0462 65.531C75.0462 67.044 75.8682 67.801 77.5122 67.801C78.1702 67.801 78.8482 67.677 79.5442 67.428C80.3602 67.137 80.7672 66.788 80.7672 66.381L80.8082 63.145V63.145ZM101.604 65.294C101.604 66.69 101.067 67.798 99.9962 68.62C98.9252 69.443 97.4612 69.854 95.6042 69.854C94.3702 69.854 93.1312 69.723 91.8952 69.458C90.8302 69.221 90.2112 69.005 90.0412 68.808C89.9352 68.622 89.8832 67.723 89.8832 66.105C89.8832 65.406 90.0412 65.045 90.3592 65.019C90.6722 64.979 90.9422 65.15 91.1672 65.531C92.1532 67.255 93.7452 68.118 95.9412 68.118C97.7952 68.118 98.7222 67.472 98.7222 66.183C98.7222 65.619 98.5142 65.144 98.0912 64.763C97.6302 64.328 96.7372 63.821 95.4082 63.243C93.4872 62.388 92.2042 61.638 91.5602 60.993C90.8632 60.309 90.5132 59.389 90.5132 58.23C90.5132 56.81 91.0592 55.705 92.1522 54.916C93.1662 54.154 94.5192 53.772 96.2152 53.772C97.2812 53.772 98.2552 53.857 99.1362 54.028C100.084 54.2 100.577 54.41 100.617 54.66C100.721 55.396 100.939 56.462 101.266 57.858C101.307 58.028 101.121 58.166 100.714 58.271C100.279 58.363 99.9912 58.29 99.8472 58.055C98.8062 56.357 97.4932 55.508 95.9002 55.508C94.0982 55.508 93.1962 56.087 93.1962 57.245C93.1962 57.891 93.4412 58.402 93.9262 58.783C94.3612 59.112 95.3802 59.625 96.9852 60.323C98.6692 61.046 99.8132 61.698 100.418 62.276C101.211 63.026 101.604 64.033 101.604 65.294V65.294ZM124.493 68.847C124.493 69.308 124.183 69.552 123.565 69.577C122.643 69.591 121.44 69.655 119.954 69.773C119.218 69.919 118.691 69.828 118.375 69.499C116.297 67.262 114.534 64.921 113.087 62.474C112.97 62.264 112.817 62.159 112.634 62.159C112.409 62.159 112.022 62.357 111.471 62.751C110.851 63.092 110.542 63.579 110.542 64.209C110.542 64.658 110.555 65.302 110.581 66.145C110.607 66.986 110.817 67.539 111.213 67.801C111.489 67.987 112.127 68.131 113.126 68.236C113.744 68.315 114.054 68.546 114.054 68.926C114.054 69.23 114.004 69.417 113.907 69.489C113.809 69.562 113.548 69.578 113.127 69.538C111.812 69.421 109.59 69.487 106.457 69.735C105.669 69.8 105.241 69.703 105.177 69.439C105.146 69.3095 105.132 69.1763 105.136 69.043C105.136 68.637 105.537 68.327 106.34 68.118C107.065 67.932 107.425 67.085 107.425 65.572V48.326C107.425 47.248 107.321 46.498 107.111 46.078C106.822 45.537 106.215 45.116 105.295 44.813C104.861 44.669 104.645 44.466 104.645 44.202C104.645 43.82 104.955 43.524 105.572 43.315C106.566 42.9824 107.514 42.5247 108.392 41.953C109.117 41.479 109.564 41.242 109.735 41.242C110.274 41.242 110.545 41.584 110.545 42.269C110.545 42.176 110.539 42.828 110.524 44.221C110.511 45.182 110.504 46.471 110.504 48.09L110.544 60.44C110.544 60.784 110.637 60.954 110.819 60.954C111.015 60.954 111.319 60.784 111.727 60.44C113.097 59.3561 114.438 58.2377 115.751 57.086C116.068 56.757 116.225 56.495 116.225 56.297C116.225 55.942 115.693 55.692 114.628 55.547C114.168 55.493 113.948 55.237 113.975 54.776C114.016 54.317 114.246 54.119 114.667 54.185C115.614 54.317 116.996 54.389 118.81 54.402C120.074 54.414 121.33 54.422 122.58 54.422C122.987 54.436 123.191 54.678 123.191 55.152C123.191 55.599 122.869 55.842 122.225 55.882C121.234 55.9141 120.261 56.149 119.364 56.572C118.113 57.138 116.778 58.131 115.357 59.551C115.309 59.5837 115.269 59.6277 115.242 59.6791C115.215 59.7305 115.2 59.7878 115.2 59.846C115.2 60.031 115.423 60.471 115.871 61.169C117.516 63.669 119.068 65.556 120.527 66.832C121.462 67.634 122.336 68.035 123.152 68.035C123.756 68.035 124.132 68.078 124.276 68.164C124.42 68.252 124.493 68.479 124.493 68.847V68.847Z" fill="black"/>
</svg>
